<?xml version="1.0" encoding="UTF-8" standalone="no"?>
<!-- Created with Inkscape (http://www.inkscape.org/) -->

<svg
   xmlns:dc="http://purl.org/dc/elements/1.1/"
   xmlns:cc="http://creativecommons.org/ns#"
   xmlns:rdf="http://www.w3.org/1999/02/22-rdf-syntax-ns#"
   xmlns:svg="http://www.w3.org/2000/svg"
   xmlns="http://www.w3.org/2000/svg"
   version="1.1"
   width="600"
   height="250"
   id="svg3562">
  <defs
     id="defs3564" />
  <metadata
     id="metadata3567">
    <rdf:RDF>
      <cc:Work
         rdf:about="">
        <dc:format>image/svg+xml</dc:format>
        <dc:type
           rdf:resource="http://purl.org/dc/dcmitype/StillImage" />
        <dc:title></dc:title>
      </cc:Work>
    </rdf:RDF>
  </metadata>
  <g
     id="layer2"
     style="opacity:0.95999995">
    <g
       transform="translate(0,-40.875)"
       id="g4623"
       style="stroke:#323232;stroke-width:1;stroke-miterlimit:4;stroke-opacity:1;stroke-dasharray:none">
      <path
         d="m -13.131983,76.253762 625.284423,0"
         transform="translate(13.381983,22.239158)"
         id="path4625"
         style="fill:none;stroke:#323232;stroke-width:1;stroke-linecap:butt;stroke-linejoin:miter;stroke-miterlimit:4;stroke-opacity:1;stroke-dasharray:none" />
      <path
         d="m -13.131983,76.253762 625.284423,0"
         transform="translate(13.381983,27.340688)"
         id="path4627"
         style="fill:none;stroke:#323232;stroke-width:1;stroke-linecap:butt;stroke-linejoin:miter;stroke-miterlimit:4;stroke-opacity:1;stroke-dasharray:none" />
    </g>
    <g
       transform="translate(0,56.119949)"
       id="g4599"
       style="stroke:#323232;stroke-width:1;stroke-miterlimit:4;stroke-opacity:1;stroke-dasharray:none">
      <path
         d="m -13.131983,76.253762 625.284423,0"
         transform="translate(13.381983,22.239158)"
         id="path4601"
         style="fill:none;stroke:#323232;stroke-width:1;stroke-linecap:butt;stroke-linejoin:miter;stroke-miterlimit:4;stroke-opacity:1;stroke-dasharray:none" />
      <path
         d="m -13.131983,76.253762 625.284423,0"
         transform="translate(13.381983,27.340688)"
         id="path4603"
         style="fill:none;stroke:#323232;stroke-width:1;stroke-linecap:butt;stroke-linejoin:miter;stroke-miterlimit:4;stroke-opacity:1;stroke-dasharray:none" />
    </g>
    <g
       transform="translate(0,-3.991767)"
       id="g4635"
       style="stroke:#323232;stroke-width:1;stroke-miterlimit:4;stroke-opacity:1;stroke-dasharray:none">
      <path
         d="m -13.131983,76.253762 625.284423,0"
         transform="translate(13.381983,22.239158)"
         id="path4637"
         style="fill:none;stroke:#323232;stroke-width:1;stroke-linecap:butt;stroke-linejoin:miter;stroke-miterlimit:4;stroke-opacity:1;stroke-dasharray:none" />
      <path
         d="m -13.131983,76.253762 625.284423,0"
         transform="translate(13.381983,27.340688)"
         id="path4639"
         style="fill:none;stroke:#323232;stroke-width:1;stroke-linecap:butt;stroke-linejoin:miter;stroke-miterlimit:4;stroke-opacity:1;stroke-dasharray:none" />
    </g>
    <g
       transform="translate(0,93.003182)"
       id="g4647"
       style="stroke:#323232;stroke-width:1;stroke-miterlimit:4;stroke-opacity:1;stroke-dasharray:none">
      <path
         d="m -13.131983,76.253762 625.284423,0"
         transform="translate(13.381983,22.239158)"
         id="path4649"
         style="fill:none;stroke:#323232;stroke-width:1;stroke-linecap:butt;stroke-linejoin:miter;stroke-miterlimit:4;stroke-opacity:1;stroke-dasharray:none" />
      <path
         d="m -13.131983,76.253762 625.284423,0"
         transform="translate(13.381983,27.340688)"
         id="path4651"
         style="fill:none;stroke:#323232;stroke-width:1;stroke-linecap:butt;stroke-linejoin:miter;stroke-miterlimit:4;stroke-opacity:1;stroke-dasharray:none" />
    </g>
  </g>
  <g
     id="layer4"
     style="display:inline">
    <g
       transform="matrix(0,-0.46058158,1,0,-144.21599,275.11239)"
       id="g3201"
       style="opacity:0.95999995;stroke:#323232;stroke-width:1.47348833;stroke-linecap:butt;stroke-linejoin:miter;stroke-miterlimit:4;stroke-opacity:1;stroke-dasharray:none">
      <path
         d="m -13.131983,76.253762 625.284423,0"
         transform="translate(13.381983,119.07752)"
         id="path3203"
         style="fill:none;stroke:#323232;stroke-width:1.47348833;stroke-linecap:butt;stroke-linejoin:miter;stroke-miterlimit:4;stroke-opacity:1;stroke-dasharray:none" />
      <path
         d="m -13.131983,76.253762 625.284423,0"
         transform="translate(13.381983,124.55405)"
         id="path3205"
         style="fill:none;stroke:#323232;stroke-width:1.47348833;stroke-linecap:butt;stroke-linejoin:miter;stroke-miterlimit:4;stroke-opacity:1;stroke-dasharray:none" />
    </g>
    <g
       transform="matrix(0,-0.46058158,1,0,348.78401,275.11239)"
       id="g4441"
       style="opacity:0.95999995;stroke:#323232;stroke-width:1.47348833;stroke-linecap:butt;stroke-linejoin:miter;stroke-miterlimit:4;stroke-opacity:1;stroke-dasharray:none">
      <path
         d="m -13.131983,76.253762 625.284423,0"
         transform="translate(13.381983,119.07752)"
         id="path4443"
         style="fill:none;stroke:#323232;stroke-width:1.47348833;stroke-linecap:butt;stroke-linejoin:miter;stroke-miterlimit:4;stroke-opacity:1;stroke-dasharray:none" />
      <path
         d="m -13.131983,76.253762 625.284423,0"
         transform="translate(13.381983,124.55405)"
         id="path4445"
         style="fill:none;stroke:#323232;stroke-width:1.47348833;stroke-linecap:butt;stroke-linejoin:miter;stroke-miterlimit:4;stroke-opacity:1;stroke-dasharray:none" />
    </g>
  </g>
  <g
     transform="translate(0,-802.36218)"
     id="layer1">
    <g
       transform="matrix(2.0189879,0,0,2.0189879,-350.97941,-1333.0559)"
       id="text4595"
       style="font-size:40px;font-style:normal;font-variant:normal;font-weight:normal;font-stretch:normal;text-indent:0;text-align:start;text-decoration:none;line-height:105.99999428%;letter-spacing:0px;word-spacing:0px;text-transform:none;direction:ltr;block-progression:tb;writing-mode:lr-tb;text-anchor:start;baseline-shift:baseline;color:#000000;fill:#ff252a;fill-opacity:1;fill-rule:nonzero;stroke:none;stroke-width:1px;marker:none;visibility:visible;display:inline;overflow:visible;enable-background:accumulate;font-family:OSP_Le-patin-helvete;-inkscape-font-specification:OSP_Le-patin-helvete">
      <path
         d="m 223.63212,1099.7622 0,7.32 -21.88,0 0,-3.24 3.76,0 0,-22.68 -3.76,0 0,-3.24 3.76,0 3.72,0 3.76,0 0,3.24 -3.76,0 0,22.64 10.84,0 0,-4.04 3.56,0"
         id="path3178"
         style="marker:none" />
      <path
         d="m 250.07337,1104.3622 0,2.72 -5.76,0 0,-2.76 c -0.90669,1.3066 -1.89335,2.24 -2.96,2.8 -1.04002,0.5866 -2.28001,0.88 -3.72,0.88 -2.82668,0 -5.05334,-1.0134 -6.68,-3.04 -1.62667,-2.0534 -2.44,-4.8534 -2.44,-8.4 0,-3.3334 0.81333,-6 2.44,-8 1.65332,-2.0267 3.83999,-3.04 6.56,-3.04 2.87998,0 5.02665,1.08 6.44,3.24 l 0,-2.68 3.32,0 0,18.28 2.8,0 m -12,-15.72 c -1.81335,0 -3.28001,0.7466 -4.4,2.24 -1.12001,1.4933 -1.68001,3.4533 -1.68,5.88 -1e-5,2.4533 0.55999,4.4266 1.68,5.92 1.11999,1.4666 2.59999,2.2 4.44,2.2 1.75998,0 3.17332,-0.7334 4.24,-2.2 1.06665,-1.4667 1.59998,-3.4134 1.6,-5.84 -2e-5,-2.5067 -0.53335,-4.4934 -1.6,-5.96 -1.06668,-1.4934 -2.49335,-2.24 -4.28,-2.24"
         id="path3180"
         style="marker:none" />
      <path
         d="m 273.70024,1085.5222 c 0.45332,0 0.91999,0.053 1.4,0.16 0.47999,0.08 0.95999,0.2266 1.44,0.44 0.47999,0.1866 0.93332,0.4533 1.36,0.8 0.45332,0.3466 0.86665,0.7866 1.24,1.32 l 0,-2.84 2.84,0 0,7.76 -3.36,0 c -0.21335,-1.4667 -0.74668,-2.5867 -1.6,-3.36 -0.85334,-0.8 -1.97334,-1.2 -3.36,-1.2 -1.84001,0 -3.26667,0.7333 -4.28,2.2 -1.01334,1.4666 -1.52,3.52 -1.52,6.16 0,2.5066 0.52,4.4666 1.56,5.88 1.03999,1.3866 2.47999,2.08 4.32,2.08 2.85332,0 4.55999,-1.68 5.12,-5.04 l 3.36,0 c -0.21335,2.5866 -1.06668,4.5866 -2.56,6 -1.49335,1.4133 -3.49334,2.12 -6,2.12 -2.85334,0 -5.12,-0.9867 -6.8,-2.96 -1.65333,-2.0267 -2.48,-4.72 -2.48,-8.08 0,-3.4667 0.84,-6.24 2.52,-8.32 1.70666,-2.08 3.97333,-3.12 6.8,-3.12"
         id="path3182"
         style="marker:none" />
      <path
         d="m 307.65149,1104.3622 0,2.72 -5.76,0 0,-2.76 c -0.90668,1.3066 -1.89335,2.24 -2.96,2.8 -1.04001,0.5866 -2.28001,0.88 -3.72,0.88 -2.82667,0 -5.05334,-1.0134 -6.68,-3.04 -1.62667,-2.0534 -2.44,-4.8534 -2.44,-8.4 0,-3.3334 0.81333,-6 2.44,-8 1.65333,-2.0267 3.83999,-3.04 6.56,-3.04 2.87999,0 5.02665,1.08 6.44,3.24 l 0,-2.68 3.32,0 0,18.28 2.8,0 m -12,-15.72 c -1.81334,0 -3.28001,0.7466 -4.4,2.24 -1.12,1.4933 -1.68,3.4533 -1.68,5.88 0,2.4533 0.56,4.4266 1.68,5.92 1.11999,1.4666 2.59999,2.2 4.44,2.2 1.75999,0 3.17332,-0.7334 4.24,-2.2 1.06665,-1.4667 1.59999,-3.4134 1.6,-5.84 -1e-5,-2.5067 -0.53335,-4.4934 -1.6,-5.96 -1.06668,-1.4934 -2.49334,-2.24 -4.28,-2.24"
         id="path3184"
         style="marker:none" />
      <path
         d="m 310.66462,1088.8422 0,-2.72 5.92,0 0,3.8 c 0.95999,-1.5734 1.87999,-2.6934 2.76,-3.36 0.90665,-0.6934 1.89332,-1.04 2.96,-1.04 0.29332,0 0.71998,0.04 1.28,0.12 l 0,3.4 c -2.24002,0.053 -3.92001,0.5733 -5.04,1.56 -1.09334,0.9866 -1.65334,2.8533 -1.68,5.6 l -0.04,8.16 2.88,0 0,2.72 -9.04,0 0,-2.72 2.84,0 0,-15.52 -2.84,0"
         id="path3186"
         style="marker:none" />
      <path
         d="m 348.12024,1104.3622 0,2.72 -5.76,0 0,-2.76 c -0.90668,1.3066 -1.89335,2.24 -2.96,2.8 -1.04001,0.5866 -2.28001,0.88 -3.72,0.88 -2.82667,0 -5.05334,-1.0134 -6.68,-3.04 -1.62667,-2.0534 -2.44,-4.8534 -2.44,-8.4 0,-3.3334 0.81333,-6 2.44,-8 1.65333,-2.0267 3.83999,-3.04 6.56,-3.04 2.87999,0 5.02665,1.08 6.44,3.24 l 0,-2.68 3.32,0 0,18.28 2.8,0 m -12,-15.72 c -1.81334,0 -3.28001,0.7466 -4.4,2.24 -1.12,1.4933 -1.68,3.4533 -1.68,5.88 0,2.4533 0.56,4.4266 1.68,5.92 1.11999,1.4666 2.59999,2.2 4.44,2.2 1.75999,0 3.17332,-0.7334 4.24,-2.2 1.06665,-1.4667 1.59999,-3.4134 1.6,-5.84 -1e-5,-2.5067 -0.53335,-4.4934 -1.6,-5.96 -1.06668,-1.4934 -2.49334,-2.24 -4.28,-2.24"
         id="path3188"
         style="marker:none" />
      <path
         d="m 349.04524,1088.8422 0,-2.72 6.6,0 5.6,17 4.96,-14.28 -1.88,0 0,-2.72 6.6,0 -8.04,20.96 -3.64,0 -6.4,-18.24 -3.8,0"
         id="path3190"
         style="marker:none" />
      <path
         d="m 395.22962,1104.3622 0,2.72 -5.76,0 0,-2.76 c -0.90669,1.3066 -1.89335,2.24 -2.96,2.8 -1.04002,0.5866 -2.28001,0.88 -3.72,0.88 -2.82668,0 -5.05334,-1.0134 -6.68,-3.04 -1.62667,-2.0534 -2.44,-4.8534 -2.44,-8.4 0,-3.3334 0.81333,-6 2.44,-8 1.65332,-2.0267 3.83999,-3.04 6.56,-3.04 2.87998,0 5.02665,1.08 6.44,3.24 l 0,-2.68 3.32,0 0,18.28 2.8,0 m -12,-15.72 c -1.81335,0 -3.28001,0.7466 -4.4,2.24 -1.12001,1.4933 -1.68001,3.4533 -1.68,5.88 -1e-5,2.4533 0.55999,4.4266 1.68,5.92 1.11999,1.4666 2.59999,2.2 4.44,2.2 1.75998,0 3.17332,-0.7334 4.24,-2.2 1.06665,-1.4667 1.59998,-3.4134 1.6,-5.84 -2e-5,-2.5067 -0.53335,-4.4934 -1.6,-5.96 -1.06668,-1.4934 -2.49335,-2.24 -4.28,-2.24"
         id="path3192"
         style="marker:none" />
      <path
         d="m 420.60274,1104.3622 0,2.72 -6.16,0 0,-14.52 c -2e-5,-1.2534 -0.38668,-2.2534 -1.16,-3 -0.77335,-0.7467 -1.82668,-1.12 -3.16,-1.12 -1.70668,0 -3.08001,0.6533 -4.12,1.96 -1.04001,1.28 -1.56001,2.9866 -1.56,5.12 l 0,8.84 2.84,0 0,2.72 -9.04,0 0,-2.72 2.84,0 0,-15.52 -2.84,0 0,-2.72 5.92,0 0,3.52 c 0.93333,-1.4667 1.93333,-2.52 3,-3.16 1.09332,-0.64 2.41332,-0.96 3.96,-0.96 2.02665,0 3.63998,0.52 4.84,1.56 1.19998,1.04 1.79998,2.4266 1.8,4.16 l 0,13.12 2.84,0"
         id="path3194"
         style="marker:none" />
      <path
         d="m 442.98774,1097.7222 -15.44,0 c 0.0267,1.92 0.4,3.4133 1.12,4.48 1.14666,1.8133 2.82666,2.72 5.04,2.72 2.71999,0 4.54665,-1.4 5.48,-4.2 l 3.36,0 c -0.42668,2.2933 -1.42668,4.08 -3,5.36 -1.57335,1.28 -3.56001,1.92 -5.96,1.92 -2.93334,0 -5.25334,-0.9867 -6.96,-2.96 -1.70667,-2 -2.56,-4.72 -2.56,-8.16 0,-3.44 0.86667,-6.1867 2.6,-8.24 1.76,-2.08 4.09333,-3.12 7,-3.12 1.97332,0 3.70665,0.4933 5.2,1.48 1.51998,0.9866 2.61332,2.3333 3.28,4.04 0.55998,1.4666 0.83998,3.6933 0.84,6.68 m -15.36,-2.72 11.76,0 c 0.0267,-0.053 0.04,-0.1334 0.04,-0.24 -2e-5,-1.7334 -0.56001,-3.1867 -1.68,-4.36 -1.12001,-1.2 -2.49334,-1.8 -4.12,-1.8 -1.68001,0 -3.06667,0.5866 -4.16,1.76 -1.09334,1.1466 -1.70667,2.6933 -1.84,4.64"
         id="path3196"
         style="marker:none" />
    </g>
    <g
       transform="matrix(2.0189879,0,0,2.0189879,-349.10593,-1236.0118)"
       id="text4306"
       style="font-size:40px;font-style:normal;font-variant:normal;font-weight:bold;font-stretch:normal;text-indent:0;text-align:start;text-decoration:none;line-height:105.99999428%;letter-spacing:0px;word-spacing:0px;text-transform:none;direction:ltr;block-progression:tb;writing-mode:lr-tb;text-anchor:start;baseline-shift:baseline;color:#000000;fill:#ff252a;fill-opacity:1;fill-rule:nonzero;stroke:none;stroke-width:1px;marker:none;visibility:visible;display:inline;overflow:visible;enable-background:accumulate;font-family:OSP_Le-patin-helvete;-inkscape-font-specification:OSP_Le-patin-helvete Bold">
      <path
         d="m 219.47212,1097.7222 -15.44,0 c 0.0267,1.92 0.39999,3.4133 1.12,4.48 1.14666,1.8133 2.82665,2.72 5.04,2.72 2.71998,0 4.54665,-1.4 5.48,-4.2 l 3.36,0 c -0.42669,2.2933 -1.42669,4.08 -3,5.36 -1.57335,1.28 -3.56002,1.92 -5.96,1.92 -2.93334,0 -5.25334,-0.9867 -6.96,-2.96 -1.70667,-2 -2.56,-4.72 -2.56,-8.16 0,-3.44 0.86666,-6.1867 2.6,-8.24 1.75999,-2.08 4.09332,-3.12 7,-3.12 1.97332,0 3.70665,0.4933 5.2,1.48 1.51998,0.9866 2.61331,2.3333 3.28,4.04 0.55998,1.4666 0.83998,3.6933 0.84,6.68 m -15.36,-2.72 11.76,0 c 0.0267,-0.053 0.04,-0.1334 0.04,-0.24 -2e-5,-1.7334 -0.56002,-3.1867 -1.68,-4.36 -1.12002,-1.2 -2.49335,-1.8 -4.12,-1.8 -1.68001,0 -3.06668,0.5866 -4.16,1.76 -1.09334,1.1466 -1.70668,2.6933 -1.84,4.64"
         id="path3199"
         style="font-weight:normal;fill:#ff252a;marker:none;-inkscape-font-specification:OSP_Le-patin-helvete" />
      <path
         d="m 245.44649,1104.3622 0,2.72 -6.16,0 0,-14.52 c -2e-5,-1.2534 -0.38668,-2.2534 -1.16,-3 -0.77335,-0.7467 -1.82668,-1.12 -3.16,-1.12 -1.70668,0 -3.08001,0.6533 -4.12,1.96 -1.04001,1.28 -1.56001,2.9866 -1.56,5.12 l 0,8.84 2.84,0 0,2.72 -9.04,0 0,-2.72 2.84,0 0,-15.52 -2.84,0 0,-2.72 5.92,0 0,3.52 c 0.93333,-1.4667 1.93333,-2.52 3,-3.16 1.09332,-0.64 2.41332,-0.96 3.96,-0.96 2.02665,0 3.63998,0.52 4.84,1.56 1.19998,1.04 1.79998,2.4266 1.8,4.16 l 0,13.12 2.84,0"
         id="path3201"
         style="font-weight:normal;fill:#ff252a;marker:none;-inkscape-font-specification:OSP_Le-patin-helvete" />
      <path
         d="m 264.96524,1077.8822 20.2,0 0,6.52 -3.76,0 0,-3.24 -12.72,0 0,9.32 15.88,0 0,3.28 -15.88,0 0,10 13.44,0 0,-3.24 3.76,0 0,6.52 -24.68,0 0,-3.24 3.76,0 0,-22.68 -3.76,0 0,-3.24 3.76,0 m 7.28,-8.36 4.52,0 -5.96,5.92 -2.4,0 3.84,-5.92"
         id="path3204"
         style="font-weight:normal;fill:#ff252a;marker:none;-inkscape-font-specification:OSP_Le-patin-helvete" />
      <path
         d="m 298.8645,1088.6022 c -1.78668,0 -3.20001,0.7333 -4.24,2.2 -1.04001,1.4666 -1.56001,3.4533 -1.56,5.96 -1e-5,2.5333 0.51999,4.5333 1.56,6 1.03999,1.44 2.46665,2.16 4.28,2.16 1.75998,0 3.14665,-0.7067 4.16,-2.12 1.01331,-1.44 1.51998,-3.4134 1.52,-5.92 -2e-5,-2.6134 -0.50669,-4.64 -1.52,-6.08 -0.98669,-1.4667 -2.38668,-2.2 -4.2,-2.2 m 9.12,0.24 0,14.8 c -2e-5,2 -0.12002,3.6666 -0.36,5 -0.24002,1.36 -0.68002,2.6133 -1.32,3.76 -0.64002,1.1466 -1.60002,1.9999 -2.88,2.56 -1.25335,0.5599 -2.85335,0.8399 -4.8,0.84 -2.45335,-10e-5 -4.41334,-0.5601 -5.88,-1.68 -1.46667,-1.1201 -2.29334,-2.6667 -2.48,-4.64 l 3.4,0 c 0.37332,2.3466 2.06665,3.5199 5.08,3.52 2.23998,-10e-5 3.77331,-0.6401 4.6,-1.92 0.82665,-1.2534 1.23998,-3.1734 1.24,-5.76 l 0,-1.08 c -0.93335,1.3333 -1.90669,2.2933 -2.92,2.88 -0.98668,0.5866 -2.13335,0.88 -3.44,0.88 -2.45335,0 -4.50668,-1 -6.16,-3 -1.65334,-2.0267 -2.48001,-4.7067 -2.48,-8.04 -10e-6,-3.4134 0.81333,-6.1734 2.44,-8.28 1.65332,-2.1067 3.81332,-3.16 6.48,-3.16 2.61332,0 4.74665,1.2133 6.4,3.64 l 0,-3.04 5.92,0 0,2.72 -2.84,0"
         id="path3206"
         style="font-weight:normal;fill:#ff252a;marker:none;-inkscape-font-specification:OSP_Le-patin-helvete" />
      <path
         d="m 313.11575,1088.8422 0,-2.72 6.12,0 5.36,16.32 4.84,-13.6 -1.88,0 0,-2.72 6.44,0 -9.32,25.36 c -1.09335,2.8799 -2.89335,4.3199 -5.4,4.32 -0.82668,-10e-5 -1.57334,-0.1734 -2.24,-0.52 l 0,-3 c 0.71999,0.1599 1.30666,0.2399 1.76,0.24 0.69332,-1e-4 1.23999,-0.1601 1.64,-0.48 0.39999,-0.2934 0.74665,-0.8134 1.04,-1.56 l 1.28,-3.32 -6.16,-18.32 -3.48,0"
         id="path3208"
         style="font-weight:normal;fill:#ff252a;marker:none;-inkscape-font-specification:OSP_Le-patin-helvete" />
      <path
         d="m 348.48263,1088.6422 c -1.76001,0 -3.17335,0.7466 -4.24,2.24 -1.06668,1.4666 -1.60001,3.4266 -1.6,5.88 -10e-6,2.4533 0.53332,4.4266 1.6,5.92 1.06665,1.4666 2.47999,2.2 4.24,2.2 1.81332,0 3.27998,-0.7334 4.4,-2.2 1.11998,-1.4934 1.67998,-3.4267 1.68,-5.8 -2e-5,-2.5067 -0.56002,-4.5067 -1.68,-6 -1.09335,-1.4934 -2.56002,-2.24 -4.4,-2.24 m -12.04,0.2 0,-2.72 5.92,0 0,3.16 c 1.57332,-2.5067 3.79999,-3.76 6.68,-3.76 2.77331,0 4.95998,1.0266 6.56,3.08 1.62664,2.0533 2.43998,4.84 2.44,8.36 -2e-5,3.3333 -0.82669,6.0133 -2.48,8.04 -1.62669,2 -3.78669,3 -6.48,3 -2.58668,0 -4.73334,-1.04 -6.44,-3.12 l 0,8.2 2.84,0 0,2.72 -9.04,0 0,-2.72 2.84,0 0,-24.24 -2.84,0"
         id="path3210"
         style="font-weight:normal;fill:#ff252a;marker:none;-inkscape-font-specification:OSP_Le-patin-helvete" />
      <path
         d="m 371.40638,1086.1222 0,2.72 -3.44,0 0,14.08 c -1e-5,0.7466 0.11999,1.2533 0.36,1.52 0.26666,0.24 0.75999,0.36 1.48,0.36 0.66665,0 1.19999,-0.053 1.6,-0.16 l 0,2.8 c -1.04001,0.1866 -1.94668,0.28 -2.72,0.28 -1.30668,0 -2.30667,-0.28 -3,-0.84 -0.69334,-0.5867 -1.04001,-1.4134 -1.04,-2.48 l 0,-15.56 -2.84,0 0,-2.72 2.84,0 0,-5.76 3.32,0 0,5.76 3.44,0"
         id="path3212"
         style="font-weight:normal;fill:#ff252a;marker:none;-inkscape-font-specification:OSP_Le-patin-helvete" />
      <path
         d="m 394.48013,1097.7222 -15.44,0 c 0.0267,1.92 0.39999,3.4133 1.12,4.48 1.14666,1.8133 2.82666,2.72 5.04,2.72 2.71998,0 4.54665,-1.4 5.48,-4.2 l 3.36,0 c -0.42669,2.2933 -1.42669,4.08 -3,5.36 -1.57335,1.28 -3.56002,1.92 -5.96,1.92 -2.93334,0 -5.25334,-0.9867 -6.96,-2.96 -1.70667,-2 -2.56,-4.72 -2.56,-8.16 0,-3.44 0.86666,-6.1867 2.6,-8.24 1.75999,-2.08 4.09332,-3.12 7,-3.12 1.97332,0 3.70665,0.4933 5.2,1.48 1.51998,0.9866 2.61331,2.3333 3.28,4.04 0.55998,1.4666 0.83998,3.6933 0.84,6.68 m -15.36,-2.72 11.76,0 c 0.0267,-0.053 0.04,-0.1334 0.04,-0.24 -2e-5,-1.7334 -0.56002,-3.1867 -1.68,-4.36 -1.12002,-1.2 -2.49335,-1.8 -4.12,-1.8 -1.68001,0 -3.06668,0.5866 -4.16,1.76 -1.09334,1.1466 -1.70667,2.6933 -1.84,4.64"
         id="path3214"
         style="font-weight:normal;fill:#ff252a;marker:none;-inkscape-font-specification:OSP_Le-patin-helvete" />
      <path
         d="m 403.9745,1102.9222 0,4.16 -4.16,0 0,-4.16 4.16,0"
         id="path3216"
         style="fill:#ff252a;marker:none;-inkscape-font-specification:OSP_Le-patin-helvete" />
    </g>
  </g>
  <g
     id="layer3">
    <rect
       width="22.46875"
       height="6.65625"
       x="46.4375"
       y="44.875"
       transform="matrix(1.0126912,0,0,0.99002348,9.3026161,-3.5646924)"
       id="rect4505"
       style="color:#000000;fill:#000000;fill-opacity:1;fill-rule:nonzero;stroke:none;stroke-width:0.5;marker:none;visibility:visible;display:inline;overflow:visible;enable-background:accumulate" />
    <rect
       width="22.46875"
       height="6.65625"
       x="46.4375"
       y="44.875"
       transform="matrix(0.33883867,0,0,0.9870892,40.601116,48.911404)"
       id="rect4509"
       style="color:#000000;fill:#000000;fill-opacity:1;fill-rule:nonzero;stroke:none;stroke-width:0.5;marker:none;visibility:visible;display:inline;overflow:visible;enable-background:accumulate" />
    <rect
       width="22.46875"
       height="6.65625"
       x="46.4375"
       y="44.875"
       transform="matrix(0.5201669,0,0,0.84037559,118.09472,56.538146)"
       id="rect4511"
       style="color:#000000;fill:#000000;fill-opacity:1;fill-rule:nonzero;stroke:none;stroke-width:0.5;marker:none;visibility:visible;display:inline;overflow:visible;enable-background:accumulate" />
    <rect
       width="22.46875"
       height="6.65625"
       x="46.4375"
       y="44.875"
       transform="matrix(0.53467292,0,0,0.84037559,76.41265,116.70951)"
       id="rect4533"
       style="color:#000000;fill:#000000;fill-opacity:1;fill-rule:nonzero;stroke:none;stroke-width:0.5;marker:none;visibility:visible;display:inline;overflow:visible;enable-background:accumulate" />
    <rect
       width="22.46875"
       height="6.65625"
       x="46.4375"
       y="44.875"
       transform="matrix(0.81571628,0,0,0.83568075,63.383796,153.79021)"
       id="rect4535"
       style="color:#000000;fill:#000000;fill-opacity:1;fill-rule:nonzero;stroke:none;stroke-width:0.5;marker:none;visibility:visible;display:inline;overflow:visible;enable-background:accumulate" />
    <rect
       width="22.46875"
       height="6.65625"
       x="46.4375"
       y="44.875"
       transform="matrix(0.55507968,0,0,0.83207621,108.21653,153.95197)"
       id="rect4537"
       style="color:#000000;fill:#000000;fill-opacity:1;fill-rule:nonzero;stroke:none;stroke-width:0.5;marker:none;visibility:visible;display:inline;overflow:visible;enable-background:accumulate" />
    <rect
       width="22.46875"
       height="6.65625"
       x="46.4375"
       y="44.875"
       transform="matrix(0.34005563,0,0,0.99061033,162.30238,145.6909)"
       id="rect4557"
       style="color:#000000;fill:#000000;fill-opacity:1;fill-rule:nonzero;stroke:none;stroke-width:0.5;marker:none;visibility:visible;display:inline;overflow:visible;enable-background:accumulate" />
    <rect
       width="22.46875"
       height="6.65625"
       x="46.4375"
       y="44.875"
       transform="matrix(0.33866481,0,0,0.99061033,162.36697,93.362775)"
       id="rect4559"
       style="color:#000000;fill:#000000;fill-opacity:1;fill-rule:nonzero;stroke:none;stroke-width:0.5;marker:none;visibility:visible;display:inline;overflow:visible;enable-background:accumulate" />
    <rect
       width="22.46875"
       height="6.65625"
       x="46.4375"
       y="44.875"
       transform="matrix(0.33907217,0,0,1.9848755,203.13989,48.753494)"
       id="rect4561"
       style="color:#000000;fill:#000000;fill-opacity:1;fill-rule:nonzero;stroke:none;stroke-width:0.5;marker:none;visibility:visible;display:inline;overflow:visible;enable-background:accumulate" />
    <rect
       width="22.46875"
       height="6.65625"
       x="46.4375"
       y="44.875"
       transform="matrix(0.33907217,0,0,1.9848755,204.57854,94.486882)"
       id="rect4539"
       style="color:#000000;fill:#000000;fill-opacity:1;fill-rule:nonzero;stroke:none;stroke-width:0.5;marker:none;visibility:visible;display:inline;overflow:visible;enable-background:accumulate" />
    <rect
       width="22.46875"
       height="6.65625"
       x="46.4375"
       y="44.875"
       transform="matrix(0.53442705,0,0,0.83207621,241.63698,117.1205)"
       id="rect4567"
       style="color:#000000;fill:#000000;fill-opacity:1;fill-rule:nonzero;stroke:none;stroke-width:0.5;marker:none;visibility:visible;display:inline;overflow:visible;enable-background:accumulate" />
    <rect
       width="22.46875"
       height="6.65625"
       x="46.4375"
       y="44.875"
       transform="matrix(0.53442705,0,0,0.83207621,305.31094,117.1205)"
       id="rect4545"
       style="color:#000000;fill:#000000;fill-opacity:1;fill-rule:nonzero;stroke:none;stroke-width:0.5;marker:none;visibility:visible;display:inline;overflow:visible;enable-background:accumulate" />
    <rect
       width="22.46875"
       height="6.65625"
       x="46.4375"
       y="44.875"
       transform="matrix(0.81398753,0,0,0.83179143,292.34305,171.56039)"
       id="rect4515"
       style="color:#000000;fill:#000000;fill-opacity:1;fill-rule:nonzero;stroke:none;stroke-width:0.5;marker:none;visibility:visible;display:inline;overflow:visible;enable-background:accumulate" />
    <rect
       width="22.46875"
       height="6.65625"
       x="46.4375"
       y="44.875"
       transform="matrix(0.5201669,0,0,0.84037559,234.36691,56.538146)"
       id="rect4521"
       style="color:#000000;fill:#000000;fill-opacity:1;fill-rule:nonzero;stroke:none;stroke-width:0.5;marker:none;visibility:visible;display:inline;overflow:visible;enable-background:accumulate" />
    <rect
       width="22.46875"
       height="6.65625"
       x="46.4375"
       y="44.875"
       transform="matrix(0.5201669,0,0,0.84037559,316.36691,56.538146)"
       id="rect4523"
       style="color:#000000;fill:#000000;fill-opacity:1;fill-rule:nonzero;stroke:none;stroke-width:0.5;marker:none;visibility:visible;display:inline;overflow:visible;enable-background:accumulate" />
    <rect
       width="22.46875"
       height="6.65625"
       x="46.4375"
       y="44.875"
       transform="matrix(0.5201669,0,0,0.83207621,411.15597,56.918948)"
       id="rect4517"
       style="color:#000000;fill:#000000;fill-opacity:1;fill-rule:nonzero;stroke:none;stroke-width:0.5;marker:none;visibility:visible;display:inline;overflow:visible;enable-background:accumulate" />
    <rect
       width="22.46875"
       height="6.65625"
       x="46.4375"
       y="44.875"
       transform="matrix(0.81502087,0,0,0.84037559,238.3465,56.538146)"
       id="rect4525"
       style="color:#000000;fill:#000000;fill-opacity:1;fill-rule:nonzero;stroke:none;stroke-width:0.5;marker:none;visibility:visible;display:inline;overflow:visible;enable-background:accumulate" />
    <rect
       width="22.46875"
       height="6.65625"
       x="46.4375"
       y="44.875"
       transform="matrix(0.81502087,0,0,0.83450705,415.18088,56.801889)"
       id="rect4527"
       style="color:#000000;fill:#000000;fill-opacity:1;fill-rule:nonzero;stroke:none;stroke-width:0.5;marker:none;visibility:visible;display:inline;overflow:visible;enable-background:accumulate" />
    <rect
       width="22.46875"
       height="6.65625"
       x="46.4375"
       y="44.875"
       transform="matrix(0.55597154,0,0,0.83207621,459.9203,56.921629)"
       id="rect4555"
       style="color:#000000;fill:#000000;fill-opacity:1;fill-rule:nonzero;stroke:none;stroke-width:0.5;marker:none;visibility:visible;display:inline;overflow:visible;enable-background:accumulate" />
    <rect
       width="22.46875"
       height="6.65625"
       x="46.4375"
       y="44.875"
       transform="matrix(0.533023,0,0,0.83207621,428.29456,20.089598)"
       id="rect4519"
       style="color:#000000;fill:#000000;fill-opacity:1;fill-rule:nonzero;stroke:none;stroke-width:0.5;marker:none;visibility:visible;display:inline;overflow:visible;enable-background:accumulate" />
    <rect
       width="22.46875"
       height="6.65625"
       x="46.4375"
       y="44.875"
       transform="matrix(0.53477052,0,0,0.84037559,251.36063,19.678771)"
       id="rect4529"
       style="color:#000000;fill:#000000;fill-opacity:1;fill-rule:nonzero;stroke:none;stroke-width:0.5;marker:none;visibility:visible;display:inline;overflow:visible;enable-background:accumulate" />
    <path
       d="m 46.4375,44.875 22.46875,0 3.04371,6.65625 -25.51246,0 z"
       transform="matrix(0.5953134,0,0,0.83290615,326.07947,20.045212)"
       id="path4563"
       style="color:#000000;fill:#000000;fill-opacity:1;fill-rule:nonzero;stroke:none;stroke-width:0.5;marker:none;visibility:visible;display:inline;overflow:visible;enable-background:accumulate" />
    <path
       d="m 46.4375,44.875 20.902569,0 3.04371,6.65625 -23.946279,0 z"
       transform="matrix(0.5953134,0,0,0.83290615,255.3786,117.08489)"
       id="rect4531"
       style="color:#000000;fill:#000000;fill-opacity:1;fill-rule:nonzero;stroke:none;stroke-width:0.5;marker:none;visibility:visible;display:inline;overflow:visible;enable-background:accumulate" />
    <path
       d="m 46.4375,44.875 22.46875,0 -3.580076,6.65625 -18.888674,0 z"
       transform="matrix(0.59574496,0,0,0.83157277,356.90413,20.120672)"
       id="path4565"
       style="color:#000000;fill:#000000;fill-opacity:1;fill-rule:nonzero;stroke:none;stroke-width:0.5;marker:none;visibility:visible;display:inline;overflow:visible;enable-background:accumulate" />
    <path
       d="m 46.4375,44.875 21.912377,0 -3.43171,6.65625 -18.480667,0 z"
       transform="matrix(0.59574496,0,0,0.83157277,284.53493,117.16035)"
       id="rect4507"
       style="color:#000000;fill:#000000;fill-opacity:1;fill-rule:nonzero;stroke:none;stroke-width:0.5;marker:none;visibility:visible;display:inline;overflow:visible;enable-background:accumulate" />
    <rect
       width="22.46875"
       height="6.65625"
       x="46.4375"
       y="44.875"
       transform="matrix(0.25952534,0,0,2.3596597,200.46391,-49.928786)"
       id="rect4513"
       style="color:#000000;fill:#000000;fill-opacity:1;fill-rule:nonzero;stroke:none;stroke-width:0.5;marker:none;visibility:visible;display:inline;overflow:visible;enable-background:accumulate" />
    <rect
       width="22.46875"
       height="6.65625"
       x="46.4375"
       y="44.875"
       transform="matrix(0.32197497,0,0,2.2276996,78.376412,-15.007078)"
       id="rect4503"
       style="color:#000000;fill:#000000;fill-opacity:1;fill-rule:nonzero;stroke:none;stroke-width:0.5;marker:none;visibility:visible;display:inline;overflow:visible;enable-background:accumulate" />
  </g>
</svg>
